<mxfile host="app.diagrams.net" modified="2022-04-03T15:56:57.227Z" agent="5.0 (Windows NT 10.0; Win64; x64) AppleWebKit/537.36 (KHTML, like Gecko) Chrome/99.0.4844.84 Safari/537.36" etag="sgNBBc7oVSDmFEiRWe2P" version="17.4.0" type="github">
  <diagram id="C5RBs43oDa-KdzZeNtuy" name="Page-1">
    <mxGraphModel dx="1672" dy="1976" grid="1" gridSize="10" guides="1" tooltips="1" connect="1" arrows="1" fold="1" page="1" pageScale="1" pageWidth="827" pageHeight="1169" math="0" shadow="0">
      <root>
        <mxCell id="WIyWlLk6GJQsqaUBKTNV-0" />
        <mxCell id="WIyWlLk6GJQsqaUBKTNV-1" parent="WIyWlLk6GJQsqaUBKTNV-0" />
        <mxCell id="WIyWlLk6GJQsqaUBKTNV-2" value="" style="rounded=0;html=1;jettySize=auto;orthogonalLoop=1;fontSize=11;endArrow=block;endFill=0;endSize=8;strokeWidth=1;shadow=0;labelBackgroundColor=none;edgeStyle=orthogonalEdgeStyle;exitX=0.5;exitY=1;exitDx=0;exitDy=0;entryX=0.5;entryY=0;entryDx=0;entryDy=0;" parent="WIyWlLk6GJQsqaUBKTNV-1" source="WIyWlLk6GJQsqaUBKTNV-3" target="4nYiJ-D3tx8AC97XDVD--0" edge="1">
          <mxGeometry relative="1" as="geometry">
            <mxPoint x="145" y="190" as="targetPoint" />
          </mxGeometry>
        </mxCell>
        <mxCell id="WIyWlLk6GJQsqaUBKTNV-3" value="(Start)&lt;br&gt;Mulai Aplikasi" style="rounded=1;whiteSpace=wrap;html=1;fontSize=12;glass=0;strokeWidth=1;shadow=0;fillColor=#dae8fc;strokeColor=#6c8ebf;" parent="WIyWlLk6GJQsqaUBKTNV-1" vertex="1">
          <mxGeometry x="85" y="100" width="120" height="40" as="geometry" />
        </mxCell>
        <mxCell id="4nYiJ-D3tx8AC97XDVD--0" value="&lt;font style=&quot;font-size: 11px&quot;&gt;Menampilkan Informasi Umum Travel&lt;/font&gt;" style="rounded=0;whiteSpace=wrap;html=1;fillColor=#dae8fc;strokeColor=#6c8ebf;" vertex="1" parent="WIyWlLk6GJQsqaUBKTNV-1">
          <mxGeometry x="85" y="190" width="120" height="60" as="geometry" />
        </mxCell>
        <mxCell id="4nYiJ-D3tx8AC97XDVD--7" value="Login As" style="rhombus;whiteSpace=wrap;html=1;fillColor=#dae8fc;strokeColor=#6c8ebf;" vertex="1" parent="WIyWlLk6GJQsqaUBKTNV-1">
          <mxGeometry x="104" y="450" width="80" height="80" as="geometry" />
        </mxCell>
        <mxCell id="4nYiJ-D3tx8AC97XDVD--10" value="" style="rounded=0;html=1;jettySize=auto;orthogonalLoop=1;fontSize=11;endArrow=block;endFill=0;endSize=8;strokeWidth=1;shadow=0;labelBackgroundColor=none;edgeStyle=orthogonalEdgeStyle;exitX=0.5;exitY=1;exitDx=0;exitDy=0;entryX=0.5;entryY=0;entryDx=0;entryDy=0;" edge="1" parent="WIyWlLk6GJQsqaUBKTNV-1" source="4nYiJ-D3tx8AC97XDVD--46" target="4nYiJ-D3tx8AC97XDVD--7">
          <mxGeometry relative="1" as="geometry">
            <mxPoint x="145" y="280" as="sourcePoint" />
            <mxPoint x="145" y="280" as="targetPoint" />
          </mxGeometry>
        </mxCell>
        <mxCell id="4nYiJ-D3tx8AC97XDVD--12" value="" style="rounded=0;html=1;jettySize=auto;orthogonalLoop=1;fontSize=11;endArrow=block;endFill=0;endSize=8;strokeWidth=1;shadow=0;labelBackgroundColor=none;edgeStyle=orthogonalEdgeStyle;entryX=0.5;entryY=0;entryDx=0;entryDy=0;exitX=0.5;exitY=1;exitDx=0;exitDy=0;" edge="1" parent="WIyWlLk6GJQsqaUBKTNV-1" source="4nYiJ-D3tx8AC97XDVD--7" target="4nYiJ-D3tx8AC97XDVD--19">
          <mxGeometry relative="1" as="geometry">
            <mxPoint x="144" y="540" as="sourcePoint" />
            <mxPoint x="144" y="540" as="targetPoint" />
          </mxGeometry>
        </mxCell>
        <mxCell id="4nYiJ-D3tx8AC97XDVD--15" value="Partner" style="rounded=0;html=1;jettySize=auto;orthogonalLoop=1;fontSize=11;endArrow=block;endFill=0;endSize=8;strokeWidth=1;shadow=0;labelBackgroundColor=none;edgeStyle=orthogonalEdgeStyle;exitX=1;exitY=0.5;exitDx=0;exitDy=0;entryX=0;entryY=0.5;entryDx=0;entryDy=0;" edge="1" parent="WIyWlLk6GJQsqaUBKTNV-1" source="4nYiJ-D3tx8AC97XDVD--7" target="4nYiJ-D3tx8AC97XDVD--18">
          <mxGeometry x="-0.0616" y="10" relative="1" as="geometry">
            <mxPoint x="204" y="489.17" as="sourcePoint" />
            <mxPoint x="414" y="490" as="targetPoint" />
            <Array as="points" />
            <mxPoint y="1" as="offset" />
          </mxGeometry>
        </mxCell>
        <mxCell id="4nYiJ-D3tx8AC97XDVD--17" value="Wisatawan" style="text;html=1;align=center;verticalAlign=middle;resizable=0;points=[];autosize=1;strokeColor=none;fillColor=none;fontSize=11;rotation=90;" vertex="1" parent="WIyWlLk6GJQsqaUBKTNV-1">
          <mxGeometry x="119" y="570" width="70" height="20" as="geometry" />
        </mxCell>
        <mxCell id="4nYiJ-D3tx8AC97XDVD--18" value="Partner Mengisi&lt;br&gt;Jasa Yang Ingin Ditawarkan" style="shape=parallelogram;perimeter=parallelogramPerimeter;whiteSpace=wrap;html=1;fixedSize=1;fontSize=11;fillColor=#dae8fc;strokeColor=#6c8ebf;" vertex="1" parent="WIyWlLk6GJQsqaUBKTNV-1">
          <mxGeometry x="414" y="460" width="120" height="60" as="geometry" />
        </mxCell>
        <mxCell id="4nYiJ-D3tx8AC97XDVD--19" value="Wisatawan Memilih&lt;br&gt;Paket Wisata" style="shape=parallelogram;perimeter=parallelogramPerimeter;fixedSize=1;fontSize=11;whiteSpace=wrap;html=1;spacingLeft=15;spacingRight=15;fillColor=#dae8fc;strokeColor=#6c8ebf;" vertex="1" parent="WIyWlLk6GJQsqaUBKTNV-1">
          <mxGeometry x="84" y="640" width="120" height="80" as="geometry" />
        </mxCell>
        <mxCell id="4nYiJ-D3tx8AC97XDVD--24" value="" style="rounded=0;html=1;jettySize=auto;orthogonalLoop=1;fontSize=11;endArrow=block;endFill=0;endSize=8;strokeWidth=1;shadow=0;labelBackgroundColor=none;edgeStyle=orthogonalEdgeStyle;entryX=0.5;entryY=0;entryDx=0;entryDy=0;exitX=0.5;exitY=1;exitDx=0;exitDy=0;" edge="1" parent="WIyWlLk6GJQsqaUBKTNV-1" source="4nYiJ-D3tx8AC97XDVD--18" target="4nYiJ-D3tx8AC97XDVD--28">
          <mxGeometry relative="1" as="geometry">
            <mxPoint x="263.5" y="540" as="sourcePoint" />
            <mxPoint x="474" y="640" as="targetPoint" />
          </mxGeometry>
        </mxCell>
        <mxCell id="4nYiJ-D3tx8AC97XDVD--28" value="Menunggu Persetujuan" style="rhombus;whiteSpace=wrap;html=1;fillColor=#dae8fc;strokeColor=#6c8ebf;fontSize=11;" vertex="1" parent="WIyWlLk6GJQsqaUBKTNV-1">
          <mxGeometry x="434" y="640" width="80" height="80" as="geometry" />
        </mxCell>
        <mxCell id="4nYiJ-D3tx8AC97XDVD--29" value="" style="rounded=0;html=1;jettySize=auto;orthogonalLoop=1;fontSize=11;endArrow=block;endFill=0;endSize=8;strokeWidth=1;shadow=0;labelBackgroundColor=none;edgeStyle=orthogonalEdgeStyle;entryX=0.463;entryY=0;entryDx=0;entryDy=0;entryPerimeter=0;exitX=0.5;exitY=1;exitDx=0;exitDy=0;" edge="1" parent="WIyWlLk6GJQsqaUBKTNV-1" target="4nYiJ-D3tx8AC97XDVD--32" source="4nYiJ-D3tx8AC97XDVD--28">
          <mxGeometry relative="1" as="geometry">
            <mxPoint x="473.5" y="720" as="sourcePoint" />
            <mxPoint x="464" y="805" as="targetPoint" />
          </mxGeometry>
        </mxCell>
        <mxCell id="4nYiJ-D3tx8AC97XDVD--32" value="(End)&lt;br style=&quot;font-size: 11px&quot;&gt;&quot;Request Accepted&quot;" style="rounded=1;whiteSpace=wrap;html=1;fontSize=11;glass=0;strokeWidth=1;shadow=0;fillColor=#dae8fc;strokeColor=#6c8ebf;" vertex="1" parent="WIyWlLk6GJQsqaUBKTNV-1">
          <mxGeometry x="418" y="835" width="120" height="50" as="geometry" />
        </mxCell>
        <mxCell id="4nYiJ-D3tx8AC97XDVD--33" value="&lt;font style=&quot;font-size: 11px&quot;&gt;Disetujui&lt;/font&gt;" style="text;html=1;align=center;verticalAlign=middle;resizable=0;points=[];autosize=1;strokeColor=none;fillColor=none;fontSize=11;rotation=90;" vertex="1" parent="WIyWlLk6GJQsqaUBKTNV-1">
          <mxGeometry x="454" y="765" width="60" height="20" as="geometry" />
        </mxCell>
        <mxCell id="4nYiJ-D3tx8AC97XDVD--34" value="&lt;font style=&quot;font-size: 11px&quot;&gt;Tidak Disetujui&lt;/font&gt;" style="text;html=1;align=center;verticalAlign=middle;resizable=0;points=[];autosize=1;strokeColor=none;fillColor=none;fontSize=11;rotation=0;" vertex="1" parent="WIyWlLk6GJQsqaUBKTNV-1">
          <mxGeometry x="514" y="660" width="90" height="20" as="geometry" />
        </mxCell>
        <mxCell id="4nYiJ-D3tx8AC97XDVD--35" value="" style="rounded=0;html=1;jettySize=auto;orthogonalLoop=1;fontSize=11;endArrow=block;endFill=0;endSize=8;strokeWidth=1;shadow=0;labelBackgroundColor=none;edgeStyle=orthogonalEdgeStyle;entryX=0;entryY=0.5;entryDx=0;entryDy=0;exitX=1;exitY=0.5;exitDx=0;exitDy=0;" edge="1" parent="WIyWlLk6GJQsqaUBKTNV-1" source="4nYiJ-D3tx8AC97XDVD--28" target="4nYiJ-D3tx8AC97XDVD--42">
          <mxGeometry relative="1" as="geometry">
            <mxPoint x="483.5" y="730" as="sourcePoint" />
            <mxPoint x="624" y="680" as="targetPoint" />
          </mxGeometry>
        </mxCell>
        <mxCell id="4nYiJ-D3tx8AC97XDVD--38" value="&lt;span style=&quot;font-size: 11px&quot;&gt;&quot;Request Rejected&quot;&lt;/span&gt;" style="rounded=1;whiteSpace=wrap;html=1;fontSize=12;glass=0;strokeWidth=1;shadow=0;fillColor=#dae8fc;strokeColor=#6c8ebf;" vertex="1" parent="WIyWlLk6GJQsqaUBKTNV-1">
          <mxGeometry x="265" y="855" width="120" height="40" as="geometry" />
        </mxCell>
        <mxCell id="4nYiJ-D3tx8AC97XDVD--39" value="&lt;span style=&quot;font-size: 11px&quot;&gt;(End)&lt;/span&gt;&lt;br style=&quot;font-size: 11px&quot;&gt;&lt;span style=&quot;font-size: 11px&quot;&gt;&quot;Request Accepted&quot;&lt;/span&gt;" style="rounded=1;whiteSpace=wrap;html=1;fontSize=12;glass=0;strokeWidth=1;shadow=0;fillColor=#dae8fc;strokeColor=#6c8ebf;" vertex="1" parent="WIyWlLk6GJQsqaUBKTNV-1">
          <mxGeometry x="84" y="1011" width="120" height="40" as="geometry" />
        </mxCell>
        <mxCell id="4nYiJ-D3tx8AC97XDVD--40" value="&lt;font style=&quot;font-size: 11px&quot;&gt;Tersedia&lt;/font&gt;" style="text;html=1;align=center;verticalAlign=middle;resizable=0;points=[];autosize=1;strokeColor=none;fillColor=none;fontSize=11;rotation=90;" vertex="1" parent="WIyWlLk6GJQsqaUBKTNV-1">
          <mxGeometry x="124" y="950" width="60" height="20" as="geometry" />
        </mxCell>
        <mxCell id="4nYiJ-D3tx8AC97XDVD--41" value="" style="rounded=0;html=1;jettySize=auto;orthogonalLoop=1;fontSize=11;endArrow=block;endFill=0;endSize=8;strokeWidth=1;shadow=0;labelBackgroundColor=none;edgeStyle=orthogonalEdgeStyle;entryX=1;entryY=0.5;entryDx=0;entryDy=0;exitX=0.5;exitY=0;exitDx=0;exitDy=0;" edge="1" parent="WIyWlLk6GJQsqaUBKTNV-1" source="4nYiJ-D3tx8AC97XDVD--38" target="4nYiJ-D3tx8AC97XDVD--19">
          <mxGeometry relative="1" as="geometry">
            <mxPoint x="153.56000000000006" y="845" as="sourcePoint" />
            <mxPoint x="184" y="680" as="targetPoint" />
            <Array as="points">
              <mxPoint x="325" y="680" />
            </Array>
          </mxGeometry>
        </mxCell>
        <mxCell id="4nYiJ-D3tx8AC97XDVD--42" value="&lt;font style=&quot;font-size: 11px&quot;&gt;&quot;Request Rejected&quot;&lt;/font&gt;" style="rounded=0;whiteSpace=wrap;html=1;fillColor=#dae8fc;strokeColor=#6c8ebf;" vertex="1" parent="WIyWlLk6GJQsqaUBKTNV-1">
          <mxGeometry x="624" y="650" width="120" height="60" as="geometry" />
        </mxCell>
        <mxCell id="4nYiJ-D3tx8AC97XDVD--43" value="" style="rounded=0;html=1;jettySize=auto;orthogonalLoop=1;fontSize=11;endArrow=block;endFill=0;endSize=8;strokeWidth=1;shadow=0;labelBackgroundColor=none;edgeStyle=orthogonalEdgeStyle;exitX=0.5;exitY=0;exitDx=0;exitDy=0;entryX=1;entryY=0.5;entryDx=0;entryDy=0;" edge="1" parent="WIyWlLk6GJQsqaUBKTNV-1" source="4nYiJ-D3tx8AC97XDVD--42" target="4nYiJ-D3tx8AC97XDVD--0">
          <mxGeometry relative="1" as="geometry">
            <mxPoint x="684.33" y="490" as="sourcePoint" />
            <mxPoint x="225" y="220" as="targetPoint" />
            <Array as="points">
              <mxPoint x="685" y="220" />
            </Array>
          </mxGeometry>
        </mxCell>
        <mxCell id="4nYiJ-D3tx8AC97XDVD--44" value="Paket &lt;br&gt;Tersedia ?" style="rhombus;whiteSpace=wrap;html=1;fillColor=#dae8fc;strokeColor=#6c8ebf;fontSize=11;" vertex="1" parent="WIyWlLk6GJQsqaUBKTNV-1">
          <mxGeometry x="104" y="835" width="80" height="80" as="geometry" />
        </mxCell>
        <mxCell id="4nYiJ-D3tx8AC97XDVD--46" value="&lt;span style=&quot;font-size: 11px&quot;&gt;Daftar Wisatawan/Partner&lt;/span&gt;" style="rounded=0;whiteSpace=wrap;html=1;fillColor=#dae8fc;strokeColor=#6c8ebf;" vertex="1" parent="WIyWlLk6GJQsqaUBKTNV-1">
          <mxGeometry x="85" y="320" width="120" height="60" as="geometry" />
        </mxCell>
        <mxCell id="4nYiJ-D3tx8AC97XDVD--47" value="" style="rounded=0;html=1;jettySize=auto;orthogonalLoop=1;fontSize=11;endArrow=block;endFill=0;endSize=8;strokeWidth=1;shadow=0;labelBackgroundColor=none;edgeStyle=orthogonalEdgeStyle;exitX=0.5;exitY=1;exitDx=0;exitDy=0;entryX=0.5;entryY=0;entryDx=0;entryDy=0;" edge="1" parent="WIyWlLk6GJQsqaUBKTNV-1" source="4nYiJ-D3tx8AC97XDVD--0" target="4nYiJ-D3tx8AC97XDVD--46">
          <mxGeometry relative="1" as="geometry">
            <mxPoint x="155.00000000000006" y="260" as="sourcePoint" />
            <mxPoint x="154" y="460.0000000000001" as="targetPoint" />
          </mxGeometry>
        </mxCell>
        <mxCell id="4nYiJ-D3tx8AC97XDVD--49" value="" style="rounded=0;html=1;jettySize=auto;orthogonalLoop=1;fontSize=11;endArrow=block;endFill=0;endSize=8;strokeWidth=1;shadow=0;labelBackgroundColor=none;edgeStyle=orthogonalEdgeStyle;entryX=0.5;entryY=0;entryDx=0;entryDy=0;exitX=0.5;exitY=1;exitDx=0;exitDy=0;" edge="1" parent="WIyWlLk6GJQsqaUBKTNV-1" source="4nYiJ-D3tx8AC97XDVD--19" target="4nYiJ-D3tx8AC97XDVD--44">
          <mxGeometry relative="1" as="geometry">
            <mxPoint x="144.52" y="725" as="sourcePoint" />
            <mxPoint x="144.52" y="835" as="targetPoint" />
          </mxGeometry>
        </mxCell>
        <mxCell id="4nYiJ-D3tx8AC97XDVD--54" value="" style="endArrow=block;html=1;rounded=0;shadow=0;sketch=0;fontSize=11;strokeColor=#000000;exitX=0.5;exitY=1;exitDx=0;exitDy=0;entryX=0.5;entryY=0;entryDx=0;entryDy=0;endFill=0;" edge="1" parent="WIyWlLk6GJQsqaUBKTNV-1" source="4nYiJ-D3tx8AC97XDVD--44" target="4nYiJ-D3tx8AC97XDVD--39">
          <mxGeometry width="50" height="50" relative="1" as="geometry">
            <mxPoint x="155" y="990" as="sourcePoint" />
            <mxPoint x="205" y="940" as="targetPoint" />
          </mxGeometry>
        </mxCell>
        <mxCell id="4nYiJ-D3tx8AC97XDVD--57" value="" style="endArrow=block;html=1;rounded=0;shadow=0;sketch=0;fontSize=11;strokeColor=#000000;exitX=1;exitY=0.5;exitDx=0;exitDy=0;entryX=0;entryY=0.5;entryDx=0;entryDy=0;endFill=0;" edge="1" parent="WIyWlLk6GJQsqaUBKTNV-1" source="4nYiJ-D3tx8AC97XDVD--44" target="4nYiJ-D3tx8AC97XDVD--38">
          <mxGeometry width="50" height="50" relative="1" as="geometry">
            <mxPoint x="205" y="820" as="sourcePoint" />
            <mxPoint x="255" y="770" as="targetPoint" />
          </mxGeometry>
        </mxCell>
        <mxCell id="4nYiJ-D3tx8AC97XDVD--58" value="&lt;font style=&quot;font-size: 11px&quot;&gt;Tidak Tersedia&lt;/font&gt;" style="text;html=1;align=center;verticalAlign=middle;resizable=0;points=[];autosize=1;strokeColor=none;fillColor=none;fontSize=11;rotation=0;" vertex="1" parent="WIyWlLk6GJQsqaUBKTNV-1">
          <mxGeometry x="175" y="855" width="90" height="20" as="geometry" />
        </mxCell>
      </root>
    </mxGraphModel>
  </diagram>
</mxfile>
